<svg xmlns="http://www.w3.org/2000/svg" xmlns:xlink="http://www.w3.org/1999/xlink" viewBox="0,0,256,256" width="100px" height="100px" fill-rule="nonzero"><g fill="none" fill-rule="nonzero" stroke="none" stroke-width="1" stroke-linecap="butt" stroke-linejoin="miter" stroke-miterlimit="10" stroke-dasharray="" stroke-dashoffset="0" font-family="none" font-weight="none" font-size="none" text-anchor="none" style="mix-blend-mode: normal"><g transform="scale(2.56,2.56)"><circle cx="78" cy="14" r="1" fill="#c719f1"></circle><circle cx="50" cy="50" r="38" fill="#48404b"></circle><circle cx="84" cy="16" r="4" fill="#c719f1"></circle><circle cx="14" cy="26" r="2" fill="#ee3edd"></circle><circle cx="78" cy="77" r="2" fill="#d531ef"></circle><circle cx="17" cy="78" r="4" fill="#d531ef"></circle><circle cx="24" cy="83" r="2" fill="#ee3edd"></circle><circle cx="66.483" cy="78.517" r="2.483" fill="#ffffff"></circle><circle cx="16" cy="48" r="1" fill="#ffffff"></circle><circle cx="86" cy="31" r="1" fill="#c719f1"></circle><circle cx="80" cy="66" r="2" fill="#ffffff"></circle><g><path d="M33.37,42.731l-2.6,6.266l-1.168,-0.59c-0.829,-0.414 -1.356,-1.243 -1.394,-2.16l-0.201,-6.367c-0.013,-0.264 0.013,-0.527 0.063,-0.779c0.176,-1.042 0.804,-1.972 1.733,-2.549l2.223,-1.369l1.13,6.329z" fill="#5a5c70"></path><path d="M71.992,39.88l-0.201,6.367c-0.038,0.917 -0.565,1.746 -1.394,2.16l-1.168,0.59l-2.6,-6.266l0.213,-1.218l1.13,-6.329l2.223,1.369c0.929,0.578 1.557,1.507 1.733,2.549c0.051,0.25 0.077,0.514 0.064,0.778z" fill="#5a5c70"></path><path d="M30.771,49.697c-0.108,0 -0.217,-0.025 -0.316,-0.076l-1.167,-0.59c-1.047,-0.523 -1.729,-1.579 -1.777,-2.755l-0.202,-6.374c-0.014,-0.293 0.011,-0.613 0.076,-0.938c0.206,-1.222 0.955,-2.326 2.05,-3.007l2.225,-1.37c0.197,-0.122 0.441,-0.138 0.653,-0.042c0.211,0.094 0.362,0.288 0.403,0.516l1.344,7.55c0.023,0.131 0.008,0.266 -0.043,0.389l-2.6,6.267c-0.075,0.18 -0.221,0.321 -0.403,0.388c-0.079,0.028 -0.161,0.042 -0.243,0.042zM31.518,36.318l-1.347,0.83c-0.752,0.467 -1.267,1.222 -1.41,2.069c-0.046,0.233 -0.063,0.438 -0.054,0.629l0.202,6.379c0.027,0.66 0.413,1.259 1.007,1.555l0.497,0.251l2.232,-5.381z" fill="#472b29"></path><path d="M69.229,49.697c-0.082,0 -0.165,-0.015 -0.243,-0.044c-0.183,-0.067 -0.329,-0.208 -0.403,-0.388l-2.6,-6.267c-0.051,-0.123 -0.066,-0.258 -0.043,-0.389l1.344,-7.55c0.041,-0.228 0.191,-0.421 0.403,-0.516c0.212,-0.094 0.456,-0.078 0.653,0.042l2.223,1.369c1.098,0.683 1.846,1.786 2.056,3.029c0.061,0.302 0.086,0.619 0.072,0.922l-0.201,6.362c-0.048,1.183 -0.731,2.239 -1.781,2.764l-1.165,0.588c-0.098,0.053 -0.206,0.078 -0.315,0.078zM67.354,42.65l2.232,5.381l0.494,-0.25c0.597,-0.298 0.983,-0.897 1.011,-1.564l0.201,-6.36c0,-0.004 0,-0.008 0,-0.012c0.009,-0.191 -0.008,-0.396 -0.05,-0.608c-0.146,-0.868 -0.662,-1.623 -1.416,-2.092l-1.345,-0.828z" fill="#472b29"></path><path d="M49.995,55.625c-8.844,0 -16,2.604 -16,8.4c0,4.2 8.727,12.6 16,12.6c7.273,0 16,-8.4 16,-12.6c0,-5.796 -7.156,-8.4 -16,-8.4z" fill="#605e60"></path><path d="M69.915,61.395c-0.04,0.82 -0.48,1.57 -1.19,2.02c-2.68,1.64 -8.46,4.22 -13.6,5.47c-1.24,0.31 -2.45,0.54 -3.56,0.64c-0.55,0.07 -1.07,0.1 -1.57,0.1c-0.5,0 -1.02,-0.03 -1.57,-0.1c-1.11,-0.1 -2.32,-0.33 -3.56,-0.64c-5.14,-1.25 -10.92,-3.83 -13.6,-5.47c-0.5,-0.32 -0.87,-0.78 -1.05,-1.31c-0.07,-0.23 -0.12,-0.47 -0.14,-0.71c-0.19,-3.85 -0.05,-9.58 0.41,-15.73c0.21,-2.78 0.49,-5.64 0.83,-8.46c0,-0.04 0.02,-0.06 0.02,-0.1c0.94,-7.83 7.36,-13.8 15.15,-14.42c0.29,-0.03 0.58,-0.04 0.87,-0.05c0.16,-0.01 0.32,-0.01 0.49,-0.01h4.3c0.17,0 0.33,0 0.49,0.01c0.29,0.01 0.58,0.02 0.87,0.05c7.79,0.62 14.21,6.59 15.15,14.42c0,0.04 0.02,0.06 0.02,0.1c0.34,2.82 0.62,5.68 0.83,8.46c0.46,6.15 0.6,11.88 0.41,15.73z" fill="#7c8a9f"></path><path d="M44.863,68.888c-5.133,-1.258 -10.918,-3.836 -13.593,-5.475c-0.499,-0.318 -0.87,-0.775 -1.05,-1.308c0.333,-3.519 1.972,-7.265 4.276,-8.98c8.959,-1.905 13.259,13.959 10.367,15.763z" fill="#8e9cb3"></path><path d="M55.128,68.888c5.133,-1.258 10.918,-3.836 13.593,-5.475c0.499,-0.318 0.87,-0.775 1.05,-1.308c-0.333,-3.519 -1.972,-7.265 -4.276,-8.98c-8.96,-1.905 -13.26,13.959 -10.367,15.763z" fill="#8e9cb3"></path><path d="M54.995,42.945h-10l1.49,-20.26c0.29,-0.03 0.58,-0.04 0.87,-0.05c0.16,-0.01 0.32,-0.01 0.49,-0.01h4.3c0.17,0 0.33,0 0.49,0.01c0.29,0.01 0.58,0.02 0.87,0.05z" fill="#8e9cb3"></path><path d="M54.995,43.195h-10c-0.069,0 -0.136,-0.029 -0.183,-0.08c-0.047,-0.051 -0.071,-0.12 -0.066,-0.189l1.49,-20.26c0.009,-0.121 0.103,-0.217 0.224,-0.23c0.289,-0.03 0.578,-0.041 0.867,-0.051c0.179,-0.011 0.344,-0.011 0.519,-0.011h4.3c0.175,0 0.34,0 0.505,0.01c0.303,0.011 0.592,0.021 0.881,0.051c0.121,0.013 0.214,0.109 0.224,0.23l0.106,1.44c0.01,0.138 -0.093,0.258 -0.231,0.268c-0.135,0.013 -0.258,-0.093 -0.268,-0.231l-0.09,-1.228c-0.208,-0.016 -0.417,-0.023 -0.625,-0.03c-0.182,-0.011 -0.33,-0.014 -0.501,-0.01h-4.3c-0.16,0.003 -0.32,0 -0.475,0.009c-0.229,0.008 -0.442,0.016 -0.651,0.031l-1.455,19.779h9.462l-0.868,-11.801c-0.01,-0.138 0.093,-0.258 0.231,-0.268c0.137,-0.015 0.257,0.093 0.268,0.231l0.888,12.07c0.005,0.069 -0.019,0.138 -0.066,0.189c-0.05,0.052 -0.117,0.081 -0.186,0.081z" fill="#472b29"></path><path d="M53.997,29.625c-0.129,0 -0.239,-0.1 -0.249,-0.231l-0.239,-3.25c-0.01,-0.138 0.093,-0.258 0.231,-0.268c0.131,-0.016 0.258,0.093 0.268,0.231l0.239,3.25c0.01,0.138 -0.093,0.258 -0.231,0.268c-0.007,0 -0.013,0 -0.019,0z" fill="#472b29"></path><path d="M44.862,69.138c-0.02,0 -0.04,-0.002 -0.06,-0.007c-4.878,-1.195 -10.778,-3.737 -13.664,-5.504c-0.553,-0.352 -0.962,-0.863 -1.156,-1.442c-0.011,-0.033 -0.015,-0.068 -0.012,-0.103c0.359,-3.796 2.118,-7.477 4.375,-9.157c0.029,-0.021 0.062,-0.036 0.097,-0.044c6.209,-1.317 9.446,5.421 10.292,7.519c1.374,3.406 1.864,7.701 0.259,8.701c-0.038,0.024 -0.084,0.037 -0.131,0.037zM30.473,62.074c0.165,0.451 0.493,0.85 0.93,1.128c2.828,1.731 8.6,4.221 13.409,5.416c1.102,-0.865 0.864,-4.551 -0.54,-8.032c-0.807,-2 -3.876,-8.417 -9.671,-7.228c-2.12,1.609 -3.772,5.097 -4.128,8.716z" fill="#472b29"></path><path d="M55.128,69.138c-0.046,0 -0.092,-0.013 -0.132,-0.038c-1.604,-1 -1.115,-5.296 0.26,-8.701c0.847,-2.097 4.086,-8.831 10.292,-7.519c0.035,0.008 0.068,0.022 0.097,0.044c2.258,1.681 4.017,5.361 4.375,9.157c0.003,0.035 -0.001,0.07 -0.012,0.103c-0.194,0.579 -0.604,1.09 -1.152,1.44c-2.89,1.77 -8.79,4.312 -13.668,5.506c-0.02,0.006 -0.04,0.008 -0.06,0.008zM63.995,53.213c-4.891,0 -7.536,5.541 -8.275,7.373c-1.405,3.481 -1.643,7.167 -0.541,8.032c4.809,-1.194 10.581,-3.684 13.413,-5.418c0.433,-0.275 0.761,-0.675 0.926,-1.126c-0.355,-3.62 -2.007,-7.107 -4.127,-8.716c-0.485,-0.099 -0.95,-0.145 -1.396,-0.145z" fill="#472b29"></path><path d="M30.488,45.668c1.587,1.092 4.007,3.646 4.007,7.457c3.84,0 10.367,7.608 10.367,15.763c1.613,-5.932 1.933,-23.22 -14.374,-23.22z" fill="#5a5c70"></path><path d="M69.502,45.668c-1.587,1.092 -4.007,3.646 -4.007,7.457c-3.84,0 -10.367,7.608 -10.367,15.763c-1.613,-5.932 -1.933,-23.22 14.374,-23.22z" fill="#5a5c70"></path><path d="M44.862,69.138c-0.011,0 -0.022,0 -0.033,-0.002c-0.124,-0.016 -0.217,-0.122 -0.217,-0.248c0,-8 -6.312,-15.513 -10.117,-15.513c-0.138,0 -0.25,-0.112 -0.25,-0.25c0,-3.368 -2.014,-5.954 -3.898,-7.251c-0.09,-0.062 -0.129,-0.176 -0.097,-0.28c0.033,-0.104 0.129,-0.176 0.239,-0.176c5.226,0 9.214,1.752 11.855,5.207c4.191,5.482 3.947,13.965 2.76,18.33c-0.03,0.109 -0.13,0.183 -0.242,0.183zM45.112,68.888h0.006zM34.742,52.885c3.705,0.282 9.405,6.785 10.261,14.146c0.729,-4.451 0.472,-11.486 -3.057,-16.103c-2.413,-3.156 -6.008,-4.835 -10.696,-4.997c1.742,1.438 3.409,3.875 3.492,6.954z" fill="#472b29"></path><path d="M55.128,69.138c-0.111,0 -0.211,-0.074 -0.241,-0.185c-1.187,-4.364 -1.431,-12.847 2.76,-18.33c2.641,-3.455 6.63,-5.207 11.855,-5.207c0.109,0 0.206,0.071 0.239,0.176c0.032,0.104 -0.007,0.218 -0.097,0.28c-1.885,1.297 -3.899,3.884 -3.899,7.251c0,0.138 -0.112,0.25 -0.25,0.25c-3.806,0 -10.117,7.514 -10.117,15.513c0,0.125 -0.093,0.231 -0.217,0.248c-0.011,0.004 -0.022,0.004 -0.033,0.004zM68.74,45.931c-4.688,0.162 -8.284,1.841 -10.696,4.997c-3.529,4.617 -3.787,11.651 -3.057,16.103c0.856,-7.36 6.557,-13.863 10.261,-14.146c0.084,-3.079 1.751,-5.516 3.492,-6.954z" fill="#472b29"></path><path d="M68.67,37.208c-5.798,3.277 -14.95,4.471 -18.675,4.471c-3.725,0 -12.877,-1.194 -18.675,-4.471c-0.346,2.82 -0.627,5.678 -0.832,8.46c8.294,1.715 14.169,10.175 14.374,23.221c1.242,0.305 2.458,0.533 3.558,0.635c0.55,0.076 1.075,0.102 1.574,0.102c0.499,0 1.024,-0.025 1.574,-0.102c1.101,-0.102 2.317,-0.33 3.558,-0.635c0.205,-13.046 6.08,-21.506 14.374,-23.221c-0.202,-2.782 -0.484,-5.64 -0.83,-8.46z" fill="#a2b3cb"></path><path d="M32.715,40.409l0.73,2.553c0.346,1.181 1.254,2.134 2.432,2.541l0.038,0.013l2.56,0.889l1.28,0.445l3.11,1.08c0.256,0.089 0.499,0.191 0.73,0.305c1.984,0.991 3.354,2.947 3.533,5.195l1.267,15.878l0.026,0.216c0.55,0.076 1.075,0.102 1.574,0.102c0.499,0 1.024,-0.025 1.574,-0.102l0.026,-0.216l1.267,-15.878c0.205,-2.515 1.882,-4.662 4.262,-5.5l6.989,-2.426c1.178,-0.406 2.086,-1.359 2.432,-2.541l0.73,-2.553c-8.32,3.811 -14.72,3.811 -17.28,3.811c-1.267,0 -3.482,0 -6.4,-0.47c-1.178,-0.178 -2.458,-0.445 -3.84,-0.813c-0.422,-0.102 -0.845,-0.216 -1.28,-0.356c-0.819,-0.241 -1.677,-0.521 -2.56,-0.851c-1.024,-0.382 -2.099,-0.814 -3.2,-1.322z" fill="#3b3634"></path><path d="M51.625,22.625v14c0,0.9 -0.73,1.62 -1.63,1.62c-0.9,0 -1.62,-0.72 -1.62,-1.62v-14z" fill="#a2b3cb"></path><path d="M49.995,77.325c-7.077,0 -15.062,-7.268 -16.466,-11.897c-1.031,-0.507 -1.934,-0.994 -2.625,-1.418c-0.646,-0.41 -1.121,-1.005 -1.348,-1.682c-0.102,-0.302 -0.161,-0.604 -0.176,-0.897c-0.197,-3.946 -0.047,-9.709 0.411,-15.814c0.205,-2.784 0.486,-5.642 0.835,-8.493c0.002,-0.018 0.011,-0.086 0.015,-0.103c1.014,-8.359 8.193,-14.844 16.699,-15.082c0.134,-0.012 0.32,-0.013 0.506,-0.013h4.301c0.187,0 0.373,0.001 0.544,0.015c8.468,0.236 15.647,6.72 16.663,15.082c0.01,0.057 0.018,0.116 0.018,0.186c0.344,2.766 0.625,5.624 0.83,8.408v0c0.458,6.109 0.607,11.872 0.411,15.812c-0.049,1.055 -0.618,2.02 -1.521,2.58c-0.696,0.427 -1.599,0.914 -2.628,1.42c-1.406,4.628 -9.392,11.896 -16.469,11.896zM47.786,23.325c-0.126,0 -0.252,0 -0.37,0.01c-7.856,0.22 -14.456,6.176 -15.388,13.855c-0.002,0.018 -0.011,0.086 -0.015,0.104c-0.345,2.828 -0.624,5.663 -0.827,8.425c-0.454,6.051 -0.603,11.75 -0.409,15.64c0.009,0.165 0.044,0.341 0.105,0.523c0.125,0.374 0.396,0.708 0.762,0.94c0.706,0.433 1.671,0.948 2.78,1.485c0.189,0.091 0.327,0.262 0.376,0.465c1.013,4.195 8.749,11.152 15.194,11.152c6.446,0 14.182,-6.957 15.195,-11.152c0.049,-0.204 0.187,-0.375 0.376,-0.465c1.107,-0.536 2.072,-1.052 2.79,-1.492c0.515,-0.319 0.829,-0.85 0.857,-1.455c0.194,-3.887 0.045,-9.587 -0.409,-15.641c0,0 0,0 0,-0.001c-0.204,-2.763 -0.482,-5.598 -0.829,-8.427c-0.01,-0.057 -0.018,-0.116 -0.018,-0.187c-0.927,-7.595 -7.527,-13.55 -15.345,-13.769c-0.173,-0.013 -0.318,-0.011 -0.467,-0.012h-4.301c-0.018,0.002 -0.038,0.002 -0.057,0.002z" fill="#472b29"></path><path d="M60.375,51.875c-0.108,0 -0.218,-0.035 -0.31,-0.108c-0.217,-0.171 -0.253,-0.486 -0.082,-0.702c0.959,-1.213 2.04,-2.273 3.212,-3.151c0.221,-0.167 0.534,-0.121 0.7,0.1c0.166,0.221 0.121,0.534 -0.1,0.7c-1.103,0.827 -2.121,1.827 -3.027,2.972c-0.099,0.124 -0.245,0.189 -0.393,0.189z" fill="#472b29"></path><path d="M49.995,69.875c-0.588,0 -1.125,-0.035 -1.643,-0.106c-1.033,-0.094 -2.254,-0.31 -3.608,-0.639c-0.221,-0.054 -0.378,-0.25 -0.382,-0.478c-0.192,-12.187 -5.547,-20.831 -13.975,-22.56c-0.246,-0.05 -0.417,-0.276 -0.398,-0.527c0.202,-2.72 0.495,-5.667 0.847,-8.521c0.021,-0.165 0.122,-0.31 0.271,-0.385c0.149,-0.074 0.326,-0.071 0.47,0.01c5.578,3.128 14.568,3.955 18.542,3.955c3.888,0 12.715,-0.827 18.293,-3.955c0.146,-0.081 0.322,-0.084 0.47,-0.01c0.149,0.075 0.25,0.22 0.271,0.385c0.353,2.854 0.645,5.801 0.847,8.521c0.019,0.251 -0.152,0.477 -0.398,0.527c-1.4,0.287 -2.744,0.777 -3.994,1.456c-0.243,0.131 -0.546,0.041 -0.678,-0.201c-0.132,-0.243 -0.042,-0.546 0.201,-0.678c1.208,-0.656 2.498,-1.147 3.84,-1.462c-0.182,-2.351 -0.429,-4.857 -0.722,-7.316c-5.769,2.942 -14.298,3.734 -18.129,3.734c-3.915,0 -12.599,-0.791 -18.379,-3.734c-0.293,2.459 -0.541,4.965 -0.722,7.317c8.573,2.006 14.031,10.768 14.335,23.04c1.157,0.268 2.202,0.446 3.112,0.529c0.989,0.135 2.091,0.132 3.036,0.003c0.93,-0.086 1.977,-0.264 3.134,-0.532c0.15,-6.045 1.559,-11.358 4.083,-15.388c0.148,-0.233 0.456,-0.305 0.689,-0.158c0.234,0.147 0.305,0.455 0.158,0.689c-2.481,3.96 -3.844,9.238 -3.939,15.261c-0.004,0.228 -0.161,0.424 -0.382,0.478c-1.354,0.33 -2.575,0.545 -3.631,0.642c-0.494,0.068 -1.031,0.103 -1.619,0.103z" fill="#472b29"></path><path d="M49.995,69.875c-0.585,0 -1.12,-0.035 -1.634,-0.106c-1.029,-0.094 -2.245,-0.311 -3.59,-0.642c-3.368,-0.825 -7.478,-2.345 -10.995,-4.065c-0.248,-0.122 -0.351,-0.421 -0.229,-0.669c0.122,-0.247 0.422,-0.35 0.669,-0.229c3.456,1.691 7.491,3.184 10.794,3.993c1.298,0.319 2.464,0.527 3.466,0.62c0.983,0.135 2.079,0.132 3.018,0.003c1.025,-0.095 2.191,-0.304 3.489,-0.622c3.303,-0.81 7.338,-2.302 10.794,-3.993c0.248,-0.122 0.547,-0.019 0.669,0.229c0.121,0.248 0.019,0.547 -0.229,0.669c-3.517,1.721 -7.627,3.241 -10.996,4.066c-1.345,0.33 -2.561,0.547 -3.613,0.644c-0.493,0.067 -1.028,0.102 -1.613,0.102z" fill="#472b29"></path><path d="M49.996,69.878c-0.518,0 -1.036,-0.036 -1.606,-0.107c-0.114,-0.014 -0.204,-0.104 -0.217,-0.219l-0.025,-0.216l-1.269,-15.888c-0.186,-2.376 -1.831,-4.5 -4.095,-5.284l-3.11,-1.08c-0.392,-0.138 -1.085,-0.377 -1.796,-0.624c-0.786,-0.272 -1.595,-0.553 -2.044,-0.71c-1.269,-0.421 -2.253,-1.438 -2.627,-2.719l-0.73,-2.555c-0.027,-0.093 0.003,-0.194 0.076,-0.257c0.073,-0.064 0.177,-0.08 0.265,-0.04c8.053,3.561 14.696,3.945 17.179,3.945c3.908,0 10.06,-0.684 17.176,-3.943c0.088,-0.041 0.193,-0.027 0.267,0.038c0.074,0.063 0.104,0.164 0.077,0.258l-0.729,2.553c-0.37,1.264 -1.338,2.276 -2.59,2.708l-6.988,2.426c-2.292,0.807 -3.899,2.881 -4.096,5.285l-1.293,16.103c-0.013,0.114 -0.103,0.205 -0.217,0.219c-0.573,0.072 -1.091,0.107 -1.608,0.107zM48.646,69.298c0.945,0.106 1.753,0.106 2.699,0l0.002,-0.02l1.266,-15.869c0.212,-2.6 1.95,-4.844 4.429,-5.716l6.99,-2.427c1.1,-0.379 1.95,-1.267 2.274,-2.375l0.581,-2.033c-6.989,3.106 -13.024,3.767 -16.891,3.767c-2.464,0 -8.974,-0.373 -16.894,-3.775l0.583,2.043c0.328,1.122 1.191,2.014 2.309,2.385c0.453,0.159 1.261,0.439 2.047,0.711c0.711,0.247 1.405,0.487 1.797,0.625l3.11,1.079c2.449,0.849 4.229,3.146 4.429,5.717z" fill="#472b29"></path><path d="M49.995,38.625c-1.097,0 -1.99,-0.843 -1.99,-1.88v-14.12c0,-0.138 0.112,-0.25 0.25,-0.25h3.49c0.138,0 0.25,0.112 0.25,0.25v14.12c0,1.037 -0.897,1.88 -2,1.88zM48.505,22.875v13.87c0,0.761 0.668,1.38 1.49,1.38c0.827,0 1.5,-0.619 1.5,-1.38v-13.87z" fill="#472b29"></path></g></g></g></svg>